<svg width="80" height="80" viewBox="0 0 80 80" fill="none" xmlns="http://www.w3.org/2000/svg">
<path d="M50.4407 1.88187L50.1335 1.61241C48.9576 0.714208 47.272 0.804029 46.1981 1.88187L45.9296 2.1902C45.0346 3.37036 45.1241 5.06208 46.1981 6.13992L54.084 14.0472H26L25.0675 14.0637C11.14 14.5565 0 26.0434 0 40.1417C0 46.9038 2.56282 53.0651 6.7668 57.7007L7.05628 57.9788C7.57984 58.4261 8.25851 58.6961 9 58.6961C10.6569 58.6961 12 57.3481 12 55.6852C12 54.9924 11.7668 54.3542 11.3749 53.8454L10.5776 52.9225C7.71813 49.4509 6 44.9977 6 40.1417C6 29.0558 14.9543 20.069 26 20.069H53.524L46.1981 27.4302L45.9296 27.7385C45.0346 28.9187 45.1241 30.6104 46.1981 31.6882C47.3697 32.8641 49.2691 32.8641 50.4407 31.6882L63.1686 18.9141L63.4371 18.6057C64.3321 17.4256 64.2426 15.7339 63.1686 14.656L50.4407 1.88187ZM72.9199 22.2843C72.3997 21.849 71.7303 21.5871 71 21.5871C69.3431 21.5871 68 22.9351 68 24.598C68 25.3447 68.2709 26.028 68.7165 26.5489C71.9968 30.1243 74 34.8982 74 40.1417C74 51.2275 65.0457 60.2143 54 60.2143H26.232L33.8535 52.5698L34.1461 52.2292C34.9355 51.1588 34.9274 49.6822 34.122 48.6201L33.8535 48.3118L33.5141 48.0181C32.4475 47.2258 30.9763 47.2339 29.918 48.0423L29.6108 48.3118L16.8829 61.0859L16.5903 61.4266C15.8009 62.497 15.809 63.9735 16.6144 65.0356L16.8829 65.344L29.6108 78.1181L29.9473 78.4097C31.1217 79.2842 32.7884 79.1871 33.8535 78.1181C34.9274 77.0403 35.0169 75.3486 34.122 74.1684L33.8535 73.8601L26.256 66.2361H54L54.9325 66.2196C68.86 65.7269 80 54.2399 80 40.1417C80 33.3679 77.4283 27.1969 73.2114 22.5586L72.9199 22.2843Z" fill="black"/>
</svg>
