<svg width="80" height="80" viewBox="0 0 80 80" fill="none" xmlns="http://www.w3.org/2000/svg">
<g clip-path="url(#clip0_15_637)">
<path d="M32.728 1.04658C36.1701 -0.348861 40.0204 -0.348861 43.4625 1.04658L72.0285 12.6274C74.5443 13.6474 76.1905 16.091 76.1905 18.8057V40.2753C74.498 38.6512 72.5753 37.2651 70.4762 36.1711V21.0853L40.9537 32.4842V41.239C38.3167 44.0603 36.3319 47.4989 35.2394 51.3144V32.4791L5.71429 20.9971V55.5779C5.71429 55.9657 5.94945 56.3148 6.30885 56.4605L34.8749 68.0413C34.9956 68.0903 35.1172 68.1364 35.2394 68.1796V68.175L35.958 68.4671C36.1815 68.558 36.4093 68.6342 36.6401 68.6956C37.5861 70.7009 38.7933 72.5586 40.2178 74.2251C37.7067 74.6023 35.1189 74.3063 32.728 73.337L4.16197 61.7562C1.64612 60.7362 0 58.2926 0 55.5779V18.8057C0 16.091 1.64612 13.6474 4.16197 12.6274L32.728 1.04658ZM41.3156 6.34224C39.2503 5.50497 36.9402 5.50497 34.8749 6.34224L27.5858 9.29728L56.2606 20.4486L66.4279 16.5229L41.3156 6.34224ZM9.86658 16.4807L38.1003 27.4605L48.3494 23.5032L19.8668 12.4266L9.86658 16.4807ZM59.0476 79.096C70.6193 79.096 80 69.7153 80 58.1436C80 46.5719 70.6193 37.1912 59.0476 37.1912C47.4759 37.1912 38.0952 46.5719 38.0952 58.1436C38.0952 69.7153 47.4759 79.096 59.0476 79.096ZM55.2381 63.0689L69.1293 49.1777C69.8732 48.4338 71.0792 48.4338 71.8231 49.1777C72.5669 49.9215 72.5669 51.1276 71.8231 51.8714L56.585 67.1095C55.8411 67.8534 54.6351 67.8534 53.8912 67.1095L46.2722 59.4905C45.5283 58.7466 45.5283 57.5406 46.2722 56.7967C47.016 56.0529 48.2221 56.0529 48.9659 56.7967L55.2381 63.0689Z" fill="black"/>
</g>
<defs>
<clipPath id="clip0_15_637">
<rect width="80" height="80" fill="white"/>
</clipPath>
</defs>
</svg>
