<svg width="20" height="20" viewBox="0 0 20 20" fill="none" xmlns="http://www.w3.org/2000/svg">
<path d="M6.98724 2.06583L6.27055 2.28186C4.96702 2.67478 4.00963 3.78795 3.81616 5.13559C3.51919 7.20432 4.18342 9.62236 5.78387 12.3944C7.38095 15.1606 9.13885 16.9432 11.0741 17.723C12.3437 18.2346 13.795 17.9591 14.7888 17.0179L15.3316 16.5039C16.0591 15.8149 16.1645 14.694 15.5783 13.8815L14.2217 12.0013C13.846 11.4807 13.1807 11.2568 12.5667 11.4445L10.516 12.0715L10.463 12.0819C10.2368 12.1149 9.71559 11.6259 9.06545 10.4998C8.38531 9.32175 8.24435 8.63292 8.43212 8.45535L9.47548 7.48242C10.2574 6.75326 10.4884 5.60722 10.0501 4.63206L9.3886 3.16069C8.9767 2.24445 7.94906 1.77591 6.98724 2.06583ZM8.47652 3.57071L9.13797 5.04209C9.40081 5.62676 9.2623 6.31388 8.79348 6.75107L7.74758 7.72639C7.07848 8.35912 7.3001 9.44212 8.19943 10.9998C9.04563 12.4655 9.81762 13.1898 10.6471 13.0642L10.7715 13.0376L12.8591 12.4008C13.0637 12.3383 13.2855 12.4129 13.4107 12.5864L14.7673 14.4666C15.0605 14.8728 15.0077 15.4333 14.644 15.7778L14.1012 16.2918C13.3913 16.9641 12.3547 17.1609 11.4478 16.7955C9.74975 16.1112 8.14494 14.4839 6.64989 11.8944C5.15179 9.29963 4.54549 7.09248 4.80601 5.27769C4.9442 4.31509 5.62806 3.51997 6.55915 3.23931L7.27584 3.02328C7.75675 2.87832 8.27057 3.11259 8.47652 3.57071Z" fill="#F60D04"/>
</svg>
