<svg width="48" height="48" viewBox="0 0 48 48" fill="none" xmlns="http://www.w3.org/2000/svg">
<path d="M5 8.5C5 7.67157 5.67157 7 6.5 7H7.61653C9.51746 7 10.6556 8.27799 11.3065 9.46599C11.7403 10.2579 12.0542 11.1764 12.2996 12.0079C12.3661 12.0027 12.4335 12 12.5016 12H37.4962C39.1566 12 40.3557 13.5888 39.9003 15.1856L36.2449 28.0039C35.5712 30.3663 33.4124 31.9955 30.9558 31.9955H19.0595C16.5826 31.9955 14.4112 30.3398 13.7557 27.9512L12.2347 22.4091L9.71748 13.9116L9.7134 13.8967C9.40199 12.761 9.10973 11.7001 8.67546 10.9074C8.25373 10.1376 7.91753 10 7.61653 10H6.5C5.67157 10 5 9.32843 5 8.5ZM15.1457 21.6805L16.6487 27.1572C16.9467 28.2429 17.9336 28.9955 19.0595 28.9955H30.9558C32.0724 28.9955 33.0537 28.255 33.3599 27.1811L36.8336 15H13.171L15.1181 21.5736C15.1287 21.6092 15.1378 21.6449 15.1457 21.6805ZM22 38C22 40.2091 20.2091 42 18 42C15.7909 42 14 40.2091 14 38C14 35.7909 15.7909 34 18 34C20.2091 34 22 35.7909 22 38ZM19 38C19 37.4477 18.5523 37 18 37C17.4477 37 17 37.4477 17 38C17 38.5523 17.4477 39 18 39C18.5523 39 19 38.5523 19 38ZM36 38C36 40.2091 34.2091 42 32 42C29.7909 42 28 40.2091 28 38C28 35.7909 29.7909 34 32 34C34.2091 34 36 35.7909 36 38ZM33 38C33 37.4477 32.5523 37 32 37C31.4477 37 31 37.4477 31 38C31 38.5523 31.4477 39 32 39C32.5523 39 33 38.5523 33 38Z" fill="black"/>
</svg>
