<svg width="80" height="80" viewBox="0 0 80 80" fill="none" xmlns="http://www.w3.org/2000/svg">
<path d="M34.6379 0.661933C35.5588 -0.220644 37.0117 -0.220644 37.9327 0.661933C43.1873 5.69764 50.6655 8.42935 57.0512 9.88063C60.2113 10.5988 63.0303 10.9872 65.056 11.1955C66.0675 11.2995 66.8774 11.3583 67.4288 11.3909C67.7044 11.4072 67.915 11.4169 68.0537 11.4225C68.123 11.4253 68.1742 11.427 68.2066 11.4281L68.2408 11.4291L68.2458 11.4292C69.5384 11.4598 70.5714 12.5165 70.5714 13.8095V32.381C70.5714 34.251 70.4684 36.1214 70.2573 37.9805C68.8238 37.0928 67.2931 36.3473 65.6846 35.7637C65.7684 34.6384 65.8095 33.5098 65.8095 32.381V16.0483C65.4345 16.0169 65.0195 15.9788 64.5689 15.9325C62.3981 15.7092 59.3836 15.294 55.9959 14.5241C49.8653 13.1308 42.2615 10.5206 36.2853 5.56734C30.3091 10.5206 22.7055 13.1308 16.5751 14.5241C13.1875 15.294 10.1731 15.7092 8.00243 15.9325C7.55184 15.9788 7.13696 16.0169 6.76194 16.0483L6.7619 31.9048C6.76192 40.3104 8.91847 48.5082 13.7182 55.4288C18.2984 62.0331 25.3755 67.6055 35.5903 71.0787C36.4777 72.6721 37.5359 74.1572 38.7402 75.5095C38.1673 75.7067 37.5857 75.8976 36.9954 76.0821C36.533 76.2266 36.0375 76.2266 35.5751 76.0821C23.6926 72.3688 15.2557 66.0016 9.8052 58.1426C4.36703 50.3013 2 41.1182 2 31.9048V13.8097C1.99998 12.5168 3.03178 11.4601 4.32419 11.4292L4.33067 11.4291L4.36484 11.4281C4.39717 11.427 4.44843 11.4253 4.51774 11.4225C4.65636 11.4169 4.86703 11.4072 5.14261 11.3909C5.69395 11.3583 6.50387 11.2995 7.51529 11.1955C9.54093 10.9872 12.3598 10.5988 15.5197 9.88064C21.9052 8.42936 29.3832 5.69765 34.6379 0.661933ZM78.1905 59.0476C78.1905 47.4759 68.8098 38.0952 57.2381 38.0952C45.6664 38.0952 36.2857 47.4759 36.2857 59.0476C36.2857 70.6193 45.6664 80 57.2381 80C68.8098 80 78.1905 70.6193 78.1905 59.0476ZM70.0135 50.0817C70.7574 50.8256 70.7574 52.0316 70.0135 52.7754L54.7754 68.0135C54.0316 68.7574 52.8256 68.7574 52.0817 68.0135L44.4627 60.3945C43.7188 59.6506 43.7188 58.4446 44.4627 57.7007C45.2065 56.9569 46.4125 56.9569 47.1564 57.7007L53.4286 63.9729L67.3198 50.0817C68.0637 49.3378 69.2697 49.3378 70.0135 50.0817Z" fill="black"/>
</svg>
